<?xml version="1.0" standalone="no"?>
<!DOCTYPE svg PUBLIC "-//W3C//DTD SVG 20010904//EN"
 "http://www.w3.org/TR/2001/REC-SVG-20010904/DTD/svg10.dtd">
<svg version="1.0" xmlns="http://www.w3.org/2000/svg"
 width="656.000000pt" height="655.000000pt" viewBox="0 0 656.000000 655.000000"
 preserveAspectRatio="xMidYMid meet">

<g transform="translate(0.000000,655.000000) scale(0.100000,-0.100000)"
fill="#000000" stroke="none">
<path d="M2880 6314 c-30 -4 -254 -53 -390 -86 -127 -30 -385 -114 -540 -173
-253 -98 -468 -212 -585 -307 -80 -67 -100 -93 -120 -162 -20 -69 -9 -127 28
-150 12 -7 74 -19 137 -25 94 -9 126 -16 178 -42 34 -16 62 -37 62 -45 0 -7
-20 -40 -44 -71 -80 -106 -390 -580 -450 -687 -96 -175 -113 -266 -81 -441 45
-252 115 -436 239 -629 56 -86 175 -205 238 -237 22 -11 38 -27 38 -37 0 -9
10 -53 21 -97 38 -145 38 -148 -17 -208 -145 -155 -235 -267 -319 -394 -21
-32 -46 -69 -55 -83 -36 -54 -142 -253 -209 -390 -116 -241 -206 -491 -256
-715 -29 -129 -51 -305 -41 -330 6 -15 46 -22 46 -7 0 18 144 164 216 219 215
164 389 262 483 270 56 5 57 5 97 -36 l41 -42 62 21 c35 11 105 42 157 67 51
26 96 44 99 41 3 -2 1 -27 -4 -54 -23 -121 34 -220 148 -261 l48 -17 -18 -65
c-33 -115 -20 -220 39 -301 37 -52 124 -120 203 -161 67 -33 72 -38 91 -90 46
-124 47 -109 -17 -170 -31 -30 -61 -56 -66 -57 -5 -2 -18 -20 -28 -40 -23 -47
-13 -93 25 -111 36 -16 150 -30 246 -31 110 0 315 29 371 52 58 25 63 40 51
156 -7 74 -7 242 0 249 1 1 40 16 87 32 65 23 92 39 117 68 46 53 58 83 77
198 9 55 21 106 27 115 51 68 171 138 285 165 32 8 106 14 165 15 100 0 111
-2 190 -36 83 -35 240 -137 373 -240 263 -205 421 -287 598 -309 42 -6 56 -14
106 -63 71 -71 173 -189 229 -264 24 -32 54 -65 68 -75 82 -53 578 -58 637 -6
9 9 17 29 17 44 0 42 -47 83 -255 221 -54 36 -115 90 -188 169 -100 110 -107
119 -97 144 17 44 12 184 -9 247 -38 112 -123 244 -197 305 -43 34 -45 38 -39
77 18 120 -233 548 -377 644 -35 23 -51 27 -103 26 -34 -1 -72 -7 -84 -13 -12
-7 -26 -9 -31 -6 -8 5 -34 67 -92 220 -34 90 -79 298 -85 392 -5 85 -4 93 13
99 35 13 154 95 164 114 16 29 12 58 -16 128 l-26 64 34 35 c18 19 85 71 148
116 136 96 244 200 288 278 40 70 50 149 32 246 -21 109 -18 169 14 251 22 56
32 72 48 72 11 0 41 7 67 16 l46 17 41 -42 c48 -47 70 -51 108 -16 21 19 26
33 26 69 l0 45 42 3 c34 2 45 8 57 30 14 25 14 31 -7 73 -22 45 -22 46 -3 40
39 -12 91 31 91 77 0 41 -53 92 -110 108 -25 7 -51 14 -57 16 -18 5 -16 24 2
24 8 0 30 14 50 31 75 66 24 132 -100 132 -75 0 -125 -24 -209 -102 -46 -43
-72 -59 -102 -64 -21 -4 -58 -16 -81 -27 -46 -22 -63 -25 -63 -11 0 26 -63
303 -94 411 -50 179 -133 425 -162 481 -13 27 -24 53 -24 59 0 20 -102 184
-139 223 -20 21 -77 70 -127 107 -259 196 -554 341 -864 427 -226 62 -291 73
-445 77 -82 2 -166 2 -185 0z m2543 -1653 c21 -8 16 -11 -73 -47 -54 -22 -78
-40 -82 -64 -3 -17 -6 -16 -33 5 l-29 24 29 26 c34 30 64 44 115 55 45 10 51
10 73 1z m-1526 -53 c7 -18 20 -62 29 -98 36 -135 11 -523 -49 -748 l-11 -42
-18 72 c-40 162 -52 452 -27 628 11 80 49 220 59 220 3 0 11 -15 17 -32z
m1298 -118 c6 -9 -8 -17 -70 -40 -71 -27 -75 -30 -75 -58 0 -15 -4 -32 -9 -37
-5 -6 -12 -27 -15 -47 -6 -31 -4 -37 9 -32 12 5 15 -4 15 -54 0 -57 -20 -119
-33 -105 -4 3 -7 26 -7 49 0 24 -4 46 -10 49 -5 3 -10 24 -10 45 0 21 -4 41
-9 44 -4 3 -11 27 -14 53 -3 27 -9 58 -12 70 -6 17 -1 25 23 37 17 9 40 17 51
19 11 2 24 6 27 10 11 11 132 8 139 -3z m183 -4 c17 -1 35 -6 39 -9 3 -4 17
-7 30 -7 13 0 35 -7 48 -16 29 -19 35 -50 8 -39 -83 35 -121 46 -152 43 -33
-3 -36 -6 -39 -38 -2 -30 2 -38 27 -53 45 -27 111 -89 105 -99 -3 -5 -20 0
-37 11 -18 10 -48 28 -67 38 -29 17 -36 26 -38 59 -2 21 -8 43 -13 49 -5 5 -9
24 -9 42 0 33 1 34 33 28 17 -3 47 -7 65 -9z m-2198 -8 c14 -6 34 -14 45 -18
69 -26 138 -67 191 -114 69 -62 157 -186 152 -216 -3 -20 -7 -19 -73 15 -38
20 -124 61 -190 92 -66 30 -156 73 -200 94 -43 22 -85 39 -92 39 -7 0 -13 5
-13 10 0 6 -5 10 -11 10 -7 0 -47 17 -91 37 l-80 38 54 11 c65 14 273 15 308
2z m1344 -65 c4 -5 12 -9 17 -9 5 -1 11 -2 13 -3 9 -2 -158 -158 -209 -193 -5
-4 -36 -30 -68 -56 -32 -27 -72 -57 -89 -67 l-31 -18 5 59 c7 103 90 232 178
279 27 14 172 20 184 8z m-2544 -25 c0 -6 -10 -25 -23 -42 -13 -17 -30 -46
-38 -63 -8 -18 -18 -33 -22 -33 -5 0 -7 -18 -5 -40 4 -47 -7 -54 -16 -9 -4 19
-1 38 6 47 19 22 37 82 27 88 -17 10 -9 33 19 47 34 19 52 20 52 5z m170 -23
c0 -9 -13 -18 -32 -22 -19 -4 -48 -24 -75 -51 -50 -53 -71 -50 -24 3 17 19 34
47 37 60 5 22 12 25 50 25 33 0 44 -4 44 -15z m-320 -48 c0 -28 -26 -45 -72
-49 -56 -4 -62 10 -20 41 31 23 92 28 92 8z m3508 -163 c-3 -25 -4 -25 -33 17
-17 24 -29 52 -27 61 6 30 64 -45 60 -78z m-3528 17 c0 -11 -58 -71 -69 -71
-6 0 -11 2 -11 5 0 15 32 80 43 87 11 7 37 -8 37 -21z m391 -129 c-5 -10 -45
-54 -88 -98 -75 -75 -165 -134 -206 -134 -10 0 -17 -4 -17 -10 0 -6 -35 -10
-84 -10 -75 0 -84 2 -89 20 -3 11 0 23 6 27 11 7 76 24 150 40 15 3 27 9 27
14 0 5 6 9 14 9 8 0 16 3 18 8 3 7 117 85 188 129 19 12 48 22 63 22 24 1 26
-2 18 -17z m-111 -614 c15 -26 12 -45 -9 -60 -10 -7 -21 -22 -25 -33 -12 -34
-187 -148 -194 -126 -2 6 -10 11 -18 11 -8 0 -14 10 -14 25 0 13 -6 42 -14 62
-8 21 -21 65 -31 98 -9 33 -21 73 -26 89 -5 16 -9 32 -9 36 0 3 35 7 78 8 76
2 169 18 186 34 6 4 21 -21 37 -60 16 -37 33 -75 39 -84z m60 -122 c0 -14
-128 -91 -137 -83 -3 3 21 30 53 60 43 41 62 52 72 45 6 -6 12 -16 12 -22z
m30 -75 c0 -11 4 -21 8 -23 4 -1 21 -30 37 -63 16 -33 32 -62 35 -65 3 -3 11
-17 19 -32 12 -23 12 -32 0 -60 -7 -18 -24 -44 -36 -58 -13 -14 -23 -28 -23
-32 0 -11 -55 -62 -81 -75 -93 -46 -139 -54 -139 -22 0 11 -11 40 -25 65 -14
25 -25 51 -25 59 0 8 -12 40 -26 72 -39 88 -54 123 -54 128 0 3 10 5 23 5 60
0 234 68 258 101 17 24 29 24 29 0z m180 -328 c0 -6 6 -18 13 -25 31 -33 40
-66 27 -100 -28 -75 -54 -125 -83 -163 -38 -50 -104 -115 -116 -115 -5 0 -17
-7 -25 -16 -14 -13 -16 -13 -16 -1 0 9 -4 17 -8 19 -12 5 -82 153 -82 174 0
12 13 27 33 39 17 10 39 27 48 37 9 10 20 18 24 18 13 0 104 94 105 108 0 6 4
12 8 12 4 0 16 14 26 31 17 28 19 29 32 12 7 -10 14 -23 14 -30z m164 -259
c22 -32 42 -61 45 -64 3 -3 19 -31 36 -62 16 -32 33 -58 37 -58 4 0 8 -6 8
-13 0 -19 57 -75 96 -93 29 -14 43 -14 106 -4 40 7 83 19 96 27 21 13 23 12
32 -13 6 -15 9 -28 8 -29 -2 -2 -95 -6 -208 -9 -202 -6 -448 -27 -482 -41 -14
-5 -18 -2 -18 14 0 11 -8 25 -19 30 -10 6 -29 30 -41 53 l-22 43 23 15 c42 26
155 145 170 178 8 18 17 32 21 32 5 0 8 4 8 10 0 5 8 28 17 49 l17 40 16 -23
c8 -13 33 -49 54 -82z m1809 29 c3 -32 12 -87 20 -123 9 -35 13 -68 11 -72 -2
-3 0 -9 6 -13 5 -3 10 -17 10 -31 0 -13 4 -32 9 -42 36 -71 60 -126 57 -130
-2 -2 -21 1 -43 7 -21 6 -129 11 -246 11 -157 0 -209 3 -212 13 -2 6 -6 33
-10 59 -6 45 -5 48 45 98 27 29 50 57 50 62 0 9 39 55 100 119 46 48 130 92
187 98 7 1 13 -21 16 -56z m-1221 -297 c82 -17 88 -21 88 -54 0 -15 6 -38 13
-52 32 -61 33 -60 -43 -60 l-70 0 -24 53 c-48 106 -54 127 -38 127 4 0 37 -6
74 -14z m774 -127 c4 -101 4 -101 -19 -95 -12 3 -46 6 -76 6 -52 0 -53 1 -38
18 10 10 17 28 17 40 0 12 5 22 11 22 6 0 9 7 5 15 -10 26 9 56 49 79 22 12
42 21 44 20 2 -2 5 -49 7 -105z m-512 62 c128 -34 249 -47 303 -33 25 7 48 10
51 7 8 -8 -20 -83 -37 -99 -13 -11 -36 -12 -121 -5 -58 5 -135 9 -172 10 -59
1 -70 5 -93 29 -14 15 -33 49 -40 75 -17 55 -29 53 109 16z m-360 -65 c9 -14
16 -27 16 -29 0 -2 -55 -7 -122 -11 -199 -10 -378 -28 -378 -38 0 -4 -31 -8
-70 -8 -40 0 -70 4 -70 10 0 6 -7 10 -15 10 -21 0 -41 40 -25 50 21 13 287 32
526 38 120 3 121 3 138 -22z m1370 -33 c4 -4 15 -8 24 -8 9 -1 27 -2 39 -3 21
-2 53 -49 53 -79 0 -8 11 -31 25 -51 47 -69 39 -70 -155 -13 -58 17 -119 31
-136 31 -17 0 -34 3 -38 7 -4 4 -30 9 -59 11 -29 2 -56 7 -62 12 -5 4 -34 10
-64 13 -29 4 -55 8 -57 10 -2 2 -1 20 3 40 l6 37 207 0 c114 0 210 -3 214 -7z"/>
<path d="M2070 3950 c0 -13 5 -17 14 -14 24 9 28 34 6 34 -13 0 -20 -7 -20
-20z"/>
<path d="M2011 3473 c7 -10 15 -20 16 -22 2 -2 3 5 3 17 0 14 -6 22 -16 22
-14 0 -15 -3 -3 -17z"/>
<path d="M2276 2625 c-3 -8 -1 -15 4 -15 6 0 10 7 10 15 0 8 -2 15 -4 15 -2 0
-6 -7 -10 -15z"/>
<path d="M2570 2490 c0 -5 5 -10 11 -10 5 0 7 5 4 10 -3 6 -8 10 -11 10 -2 0
-4 -4 -4 -10z"/>
<path d="M3961 2370 c0 -33 1 -34 11 -12 8 17 8 26 0 34 -9 9 -12 4 -11 -22z"/>
</g>
</svg>
